# xmcd
#
# Track frame offsets: 
#        150
#        12076
#        24126
#        31667
#        50182
#        67188
#        85758
#        97959
#        107869
#        123774
#        136285
#        152770
#        161219
#
# Disc length: 2343 seconds
#
# Revision: 0
# Processed by: cddbd v1.5.2PL0 Copyright (c) Steve Scherf et al.
# Submitted via: ExactAudioCopy v1.1
#
DISCID=9e09250d
DTITLE=The Legendary River Drifters - Into the Darkness
DYEAR=2009
DGENRE=Folk/Rock
TTITLE0=The Metal Song
TTITLE1=Denver City Lights
TTITLE2=Cherry Wine
TTITLE3=Soapy Raft Stomp
TTITLE4=The Prayer
TTITLE5=The Fire
TTITLE6=The Mountain Song
TTITLE7=The Fly
TTITLE8=Long Before These Days Grew Dark
TTITLE9=Wash Away My Whiskey Ways
TTITLE10=Jesus
TTITLE11=Devil Dance
TTITLE12=Empty Lot
EXTD=
EXTT0=
EXTT1=
EXTT2=
EXTT3=
EXTT4=
EXTT5=
EXTT6=
EXTT7=
EXTT8=
EXTT9=
EXTT10=
EXTT11=
EXTT12=
PLAYORDER=
